<svg width="1200" height="1200" xmlns="http://www.w3.org/2000/svg">

 <g>
  <title>background</title>
  <rect fill="none" id="canvas_background" height="1202" width="1202" y="-1" x="-1"/>
 </g>
 <g>
  <title>Layer 1</title>
  <path id="svg_1" fill="#fff" d="m0,0l600,0l0,400l-600,0l0,-400z"/>
  <g id="qtr">
   <path id="svg_2" fill="#1565c0" d="m-0.414368,-0.090576l1200.828674,0l0,1200.181152l-1200.828674,0l0,-1200.181152z"/>
   <path id="svg_7" fill="#fff" d="m802.552734,749.42395c13.282104,-19.923096 12.451782,-63.09021 -14.112427,-78.862671c-20.753418,-9.96167 -43.16687,-5.811035 -53.95874,2.490356c-17.432617,10.791748 -34.035278,43.99707 -34.035278,78.032593l59.769409,0l0,67.240723l-124.52002,0c1.6604,34.035522 20.753418,62.260132 55.619141,77.202637c-4.150757,14.112183 -25.734253,43.996948 -54.78894,42.336792c-5.811035,31.545044 -10.791626,48.977905 -37.355957,77.202515c-25.734253,-28.224609 -31.545044,-45.657471 -37.356079,-77.202515c-29.054626,1.660156 -49.807983,-27.394531 -54.788849,-42.336792c34.865753,-14.942505 53.958649,-43.167114 55.619049,-77.202637l-124.52002,0l0,-67.240723l59.76944,0c0,-34.035522 -16.602661,-67.240845 -34.035248,-78.032593c-10.791901,-9.131348 -34.035553,-12.452026 -53.95874,-2.490356c-26.564362,14.942383 -28.224701,58.939575 -14.112305,78.862671c-126.180481,-23.243652 -113.728455,-145.273315 -70.561401,-189.270447c34.865723,-35.69574 72.22171,-41.506653 102.106354,-29.884827c66.410706,24.073975 111.238129,102.936646 112.898224,221.64563l34.865723,0c0,-107.917358 -19.093201,-141.952759 -67.240875,-277.264618c-24.904022,-63.920227 -9.961731,-142.782959 34.035553,-215.004547c15.772461,-25.734207 35.695679,-49.808029 58.109375,-74.712036c22.413452,24.904007 42.336792,48.977829 58.109253,74.712036c43.99707,73.051666 58.939575,151.914368 34.035645,215.004547c-48.978149,135.311859 -67.240967,169.34726 -67.240967,277.264618l34.865479,0c2.490601,-117.878906 46.487549,-197.571655 112.898315,-221.64563c29.054565,-11.621826 67.240845,-5.810913 102.106567,29.884827c43.166748,43.997131 55.618896,166.026794 -70.561401,189.270447l-1.660278,0z"/>
  </g>
 </g>
</svg>