<svg width="2000" height="2000" xmlns="http://www.w3.org/2000/svg">
 <!-- Created with Method Draw - http://github.com/duopixel/Method-Draw/ -->

 <g>
  <title>Layer 1</title>
  <g id="svg_8">
   <path fill="#d52b1e" d="m999.981567,186.670105l-80.847534,150.79071c-9.173828,16.388397 -25.610474,14.868469 -42.047241,5.714966l-58.531494,-30.308655l43.623901,231.611084c9.17395,42.31427 -20.259644,42.31427 -34.7854,24.018372l-102.148682,-114.354156l-16.583496,58.071625c-1.912354,7.625977 -10.320801,15.635864 -22.935303,13.728394l-129.167969,-27.158051l33.926758,123.34549c7.262329,27.445679 12.927612,38.809082 -7.332275,46.047852l-46.039551,21.638428l222.354248,180.612183c8.80127,6.829346 13.247681,19.118652 10.114624,30.246216l-19.460815,63.86377c76.559692,-8.825073 145.158691,-22.102295 221.757568,-30.279175c6.761597,-0.721924 18.082397,10.4375 18.035767,18.274048l-10.143677,233.97168l37.223755,0l-5.859497,-233.469971c-0.046631,-7.836426 10.223389,-19.497681 16.985596,-18.775757c76.598389,8.17688 145.197754,21.454102 221.757813,30.279175l-19.460938,-63.86377c-3.133301,-11.127563 1.313232,-23.41687 10.114502,-30.246216l222.354492,-180.612183l-46.039795,-21.638428c-20.260254,-7.23877 -14.595215,-18.602173 -7.332275,-46.047852l33.926758,-123.34549l-129.167969,27.158051c-12.614502,1.907471 -21.022949,-6.102417 -22.935059,-13.728394l-16.58374,-58.071625l-102.148682,114.354156c-14.526123,18.295898 -43.959961,18.295898 -34.786133,-24.018372l43.624268,-231.611084l-58.53125,30.308655c-16.437012,9.153503 -32.873291,10.673431 -42.047119,-5.714966" id="svg_7"/>
   <path fill="#d52b1e" stroke="null" stroke-width="null" stroke-opacity="null" fill-opacity="null" d="m999.999939,1178.300781c-187.755859,0 -339.94812,142.681396 -339.94812,318.703613c0,176.022461 152.192261,318.703613 339.94812,318.703613c187.756165,0 339.948303,-142.681152 339.948303,-318.703613c0,-176.022217 -152.192139,-318.703613 -339.948303,-318.703613zm29.35968,491.496826l0,44.895752l-45.802673,0l0,-44.389893c-75.152344,-9.648193 -108.080811,-67.537598 -108.080811,-67.537598l46.819702,-36.687012c0,0 29.847168,48.766357 83.877441,48.766357c29.846497,0 52.483459,-14.997314 52.483459,-40.557373c0,-59.834961 -171.882996,-52.579346 -171.882996,-163.572998c0,-48.241455 40.647095,-82.98291 96.762573,-91.19165l0,-44.875977l45.792542,0l0,44.837158c39.111572,4.843262 85.422852,24.140137 85.422852,65.650879l0,31.843018l-60.72168,0l0,-15.444824c0,-15.911865 -21.640869,-26.532715 -45.823181,-26.532715c-30.874634,0 -53.511597,14.472412 -53.511597,34.741455c0,61.254639 171.893372,46.296143 171.893372,162.600342c0.020752,47.774414 -38.053467,89.265869 -97.229004,97.455078l0,0z" id="svg_9"/>
  </g>
 </g>
</svg>